<svg width="22" height="22" viewBox="0 0 22 22" fill="none" xmlns="http://www.w3.org/2000/svg">
<path d="M1.93359 0C0.86741 0 0 0.86741 0 1.93359V9.79688H9.79688V0H1.93359ZM6.40234 5.54297H5.54297V6.40234C5.54297 6.7583 5.25439 7.04688 4.89844 7.04688C4.54248 7.04688 4.25391 6.7583 4.25391 6.40234V5.54297H3.39453C3.03858 5.54297 2.75 5.25439 2.75 4.89844C2.75 4.54248 3.03858 4.25391 3.39453 4.25391H4.25391V3.39453C4.25391 3.03858 4.54248 2.75 4.89844 2.75C5.25439 2.75 5.54297 3.03858 5.54297 3.39453V4.25391H6.40234C6.7583 4.25391 7.04688 4.54248 7.04688 4.89844C7.04688 5.25439 6.7583 5.54297 6.40234 5.54297Z" fill="#FEFDFB"/>
<path d="M20.5319 9.79688H20.8828V1.93359C20.8828 0.86741 20.0154 0 18.9492 0H11.0859V9.56441C12.3615 8.60471 13.9465 8.03516 15.6621 8.03516C17.512 8.03516 19.21 8.69735 20.5319 9.79688ZM13.8359 4.89844C13.8359 4.54248 14.1245 4.25391 14.4805 4.25391H17.4883C17.8442 4.25391 18.1328 4.54248 18.1328 4.89844C18.1328 5.25439 17.8442 5.54297 17.4883 5.54297H14.4805C14.1245 5.54297 13.8359 5.25439 13.8359 4.89844Z" fill="#FEFDFB"/>
<path d="M9.56441 11.0859H0V18.9492C0 20.0154 0.86741 20.8828 1.93359 20.8828H9.79688V20.5319C8.69735 19.21 8.03516 17.512 8.03516 15.6621C8.03516 13.9465 8.60471 12.3615 9.56441 11.0859ZM6.42838 16.6029C6.68009 16.8546 6.68009 17.2627 6.42838 17.5144C6.30257 17.6402 6.13761 17.7031 5.97266 17.7031C5.8077 17.7031 5.64274 17.6402 5.51693 17.5143L4.89844 16.8959L4.27995 17.5144C4.15413 17.6402 3.98918 17.7031 3.82422 17.7031C3.65926 17.7031 3.4943 17.6402 3.36849 17.5143C3.11678 17.2626 3.11678 16.8545 3.36849 16.6028L3.98694 15.9844L3.36845 15.3659C3.11674 15.1142 3.11674 14.7061 3.36845 14.4544C3.62012 14.2027 4.02823 14.2027 4.27995 14.4544L4.89844 15.0729L5.51693 14.4544C5.7686 14.2027 6.17671 14.2027 6.42843 14.4544C6.68014 14.7061 6.68014 15.1142 6.42843 15.3659L5.80993 15.9844L6.42838 16.6029Z" fill="#FEFDFB"/>
<path d="M15.6621 9.32422C12.1674 9.32422 9.32422 12.1674 9.32422 15.6621C9.32422 19.1568 12.1674 22 15.6621 22C19.1568 22 22 19.1568 22 15.6621C22 12.1674 19.1568 9.32422 15.6621 9.32422ZM17.166 17.3809H14.1582C13.8022 17.3809 13.5137 17.0923 13.5137 16.7363C13.5137 16.3804 13.8022 16.0918 14.1582 16.0918H17.166C17.522 16.0918 17.8105 16.3804 17.8105 16.7363C17.8105 17.0923 17.522 17.3809 17.166 17.3809ZM17.166 15.2324H14.1582C13.8022 15.2324 13.5137 14.9438 13.5137 14.5879C13.5137 14.2319 13.8022 13.9434 14.1582 13.9434H17.166C17.522 13.9434 17.8105 14.2319 17.8105 14.5879C17.8105 14.9438 17.522 15.2324 17.166 15.2324Z" fill="#FEFDFB"/>
</svg>
