<svg width="44" height="40" viewBox="0 0 44 40" fill="none" xmlns="http://www.w3.org/2000/svg">
<g id="dentist">
<path id="Path" d="M0.598823 11.1352C0.514361 5.47061 5.02647 0.703601 10.6915 0.669259C13.3308 0.653243 15.7377 1.64432 17.552 3.28041C18.6466 4.26751 20.3271 4.26751 21.4218 3.28041C23.2361 1.64432 25.643 0.653322 28.2823 0.669259C33.9473 0.703601 38.4595 5.47061 38.3751 11.1352C38.254 19.2665 33.3524 21.4241 33.3524 28.3094C33.3524 35.1481 30.1926 39.331 27.1006 39.331C23.8312 39.331 21.9438 35.511 20.6342 32.2283C20.2216 31.194 18.7524 31.194 18.3397 32.2283C17.03 35.511 15.1427 39.331 11.8733 39.331C8.78129 39.331 5.62145 35.1481 5.62145 28.3094C5.62137 21.4241 0.719938 19.2665 0.598823 11.1352Z" fill="#FCF2D0"/>
<path id="Path_2" d="M7.77826 1.12195C3.55779 2.44099 0.5295 6.48529 0.598822 11.1351C0.719938 19.2665 5.62145 21.424 5.62145 28.3094C5.62145 35.1481 8.78129 39.331 11.8733 39.331C14.8955 39.331 16.7365 36.067 18.0322 32.9806C9.95827 30.0941 4.62081 10.243 7.77826 1.12195Z" fill="#FAE0BD"/>
<g id="Group">
<path id="Path_3" d="M15.3247 13.9694C15.3253 15.0401 14.2357 15.9087 12.8911 15.9093C11.5466 15.9099 10.4562 15.0425 10.4557 13.9719C10.4551 12.9011 11.5447 12.0326 12.8892 12.0319C14.2338 12.0312 15.3242 12.8986 15.3247 13.9694Z" fill="#EDA1AB"/>
<path id="Path_4" d="M23.6515 13.9653C23.652 15.036 24.7424 15.9034 26.0869 15.9027C27.4315 15.9021 28.5211 15.0336 28.5205 13.9628C28.5199 12.892 27.4296 12.0246 26.085 12.0253C24.7405 12.026 23.651 12.8945 23.6515 13.9653Z" fill="#EDA1AB"/>
<path id="Path_5" d="M21.8741 13.0896C21.8734 11.6148 20.8049 11.4768 19.4869 11.4774C18.169 11.4781 17.1006 11.6172 17.1013 13.092C17.102 14.5668 18.1711 15.7618 19.489 15.7612C20.8071 15.7605 21.8749 14.5644 21.8741 13.0896Z" fill="#4E5660"/>
</g>
<path id="Oval" d="M37.6587 31.6314C41.0361 28.254 41.0361 22.7782 37.6587 19.4009C34.2814 16.0235 28.8056 16.0235 25.4282 19.4009C22.0509 22.7782 22.0509 28.254 25.4282 31.6314C28.8056 35.0087 34.2814 35.0087 37.6587 31.6314Z" fill="#EDA1AB"/>
<path id="Path_6" d="M33.2579 23.3542V20.8439C33.2579 20.5937 33.055 20.3909 32.8048 20.3909H30.2945C30.0443 20.3909 29.8415 20.5937 29.8415 20.8439V23.3542C29.8415 23.6044 29.6386 23.8073 29.3884 23.8073H26.8781C26.6278 23.8073 26.425 24.0102 26.425 24.2604V26.7706C26.425 27.0209 26.6279 27.2237 26.8781 27.2237H29.3884C29.6387 27.2237 29.8415 27.4266 29.8415 27.6768V30.187C29.8415 30.4373 30.0443 30.6401 30.2945 30.6401H32.8048C33.0551 30.6401 33.2579 30.4372 33.2579 30.187V27.6768C33.2579 27.4266 33.4607 27.2237 33.7109 27.2237H36.2212C36.4715 27.2237 36.6743 27.0208 36.6743 26.7706V24.2604C36.6743 24.0101 36.4714 23.8073 36.2212 23.8073H33.7109C33.4607 23.8073 33.2579 23.6044 33.2579 23.3542Z" fill="white"/>
<path id="Shape" fill-rule="evenodd" clip-rule="evenodd" d="M6.92212 33.4123C6.45558 31.8813 6.21901 30.1645 6.21901 28.3095C6.21901 24.84 5.04549 22.5589 3.83268 20.2014C2.56623 17.7396 1.25695 15.1946 1.1963 11.1263C1.11614 5.74782 5.39821 1.29906 10.6951 1.26695C13.0876 1.25189 15.3785 2.12511 17.1518 3.72424C18.4832 4.92471 20.4908 4.92463 21.8219 3.72424C23.5953 2.12503 25.8855 1.25149 28.2786 1.26695C30.3028 1.27922 32.2345 1.93093 33.8646 3.15181C34.1287 3.34965 34.5033 3.29587 34.7012 3.03173C34.899 2.7675 34.8452 2.393 34.5811 2.19515C32.7447 0.819854 30.5679 0.0855907 28.2859 0.0717261C25.5976 0.0557102 23.0169 1.0373 21.0216 2.83667C20.1611 3.6126 18.8129 3.61268 17.9522 2.83667C15.9733 1.05212 13.4192 0.0715668 10.7539 0.0715668L10.6879 0.0717261C4.72108 0.107901 -0.0887185 5.10527 0.00124167 11.1441C0.06594 15.4869 1.43939 18.1582 2.73358 20.6753C3.91152 22.9664 5.02379 25.1297 5.02379 28.3094C5.02379 30.2826 5.27782 32.1167 5.77885 33.7607C5.87503 34.0764 6.20873 34.2544 6.52475 34.1582C6.84037 34.0619 7.01829 33.728 6.92212 33.4123ZM24.7247 10.1928C24.3953 10.1928 24.1278 10.4597 24.1271 10.7893L24.1254 11.7455C24.1247 12.0756 24.3918 12.3436 24.7219 12.3442H24.7231C25.0526 12.3442 25.32 12.0774 25.3207 11.7477L25.3224 10.7916C25.3231 10.4615 25.056 10.1935 24.7259 10.1928H24.7247ZM38.9726 11.144C38.9252 14.3233 38.1695 16.568 37.3801 18.3438C39.4636 20.0408 40.7968 22.6253 40.7968 25.5156C40.7968 30.1607 37.3538 34.0163 32.8857 34.6658C31.6496 37.9221 29.4558 39.9286 27.1004 39.9286C23.4362 39.9286 21.425 35.8234 20.079 32.4498C19.8664 31.9171 19.1072 31.9171 18.8946 32.4498C17.5482 35.8249 15.5345 39.9286 11.8732 39.9286C10.0298 39.9286 8.23686 38.6758 6.95423 36.4913C6.78706 36.2067 6.88236 35.8405 7.16698 35.6734C7.45144 35.5061 7.81782 35.6014 7.98491 35.8861C9.04738 37.6956 10.4646 38.7333 11.8732 38.7333C14.7174 38.7333 16.4575 35.333 17.7845 32.0068C18.3965 30.4728 20.5771 30.4728 21.1891 32.0068C22.5162 35.333 24.2563 38.7333 27.1005 38.7333C28.799 38.7333 30.4905 37.2014 31.5555 34.7626C26.4306 34.7626 22.3024 30.5966 22.3024 25.5155C22.3024 20.4166 26.4507 16.2683 31.5496 16.2683C33.3209 16.2683 34.9773 16.7693 36.3851 17.6365C37.0877 16.0081 37.7353 13.9627 37.7775 11.1262C37.8099 8.94918 37.1018 6.79444 35.7834 5.05906C35.5837 4.79627 35.6349 4.42137 35.8977 4.22169C36.1607 4.02201 36.5355 4.07332 36.7351 4.33603C38.2144 6.2832 39.009 8.70097 38.9726 11.144ZM31.5496 33.5674C27.1098 33.5674 23.4977 29.9553 23.4977 25.5155C23.4977 21.0756 27.1098 17.4635 31.5496 17.4635C35.9894 17.4635 39.6016 21.0756 39.6016 25.5155C39.6016 29.9553 35.9894 33.5674 31.5496 33.5674ZM33.8554 23.2097H36.2212C36.8006 23.2097 37.2719 23.681 37.2719 24.2603V26.7706C37.2719 27.35 36.8006 27.8213 36.2212 27.8213H33.8554V30.187C33.8554 30.7664 33.3841 31.2378 32.8047 31.2378H30.2945C29.7151 31.2378 29.2437 30.7664 29.2437 30.187V27.8213H26.878C26.2986 27.8213 25.8273 27.35 25.8273 26.7706V24.2603C25.8273 23.681 26.2986 23.2097 26.878 23.2097H29.2437V20.8439C29.2437 20.2646 29.7151 19.7932 30.2945 19.7932H32.8047C33.3841 19.7932 33.8554 20.2646 33.8554 20.8439V23.2097ZM36.0767 26.6261H33.711C33.1316 26.6261 32.6602 27.0975 32.6602 27.6768V30.0426H30.4389V27.6768C30.4389 27.0975 29.9676 26.6261 29.3883 26.6261H27.0225V24.405H29.3883C29.9676 24.405 30.4389 23.9336 30.4389 23.3543V20.9885H32.6602V23.3543C32.6602 23.9336 33.1316 24.405 33.711 24.405H36.0767V26.6261ZM12.994 11.6528C12.9961 10.7068 13.7665 9.93842 14.7122 9.93842V9.9385H14.7157C15.6632 9.94065 16.4322 10.7131 16.4302 11.6604C16.4294 11.99 16.162 12.2567 15.8326 12.2567H15.8313C15.5012 12.2559 15.2343 11.9877 15.235 11.6577C15.2357 11.3693 15.0016 11.1343 14.7132 11.1336H14.7121C14.4243 11.1336 14.1898 11.3674 14.1892 11.6554C14.1886 11.985 13.9211 12.2517 13.5917 12.2517H13.5903C13.2603 12.251 12.9933 11.9829 12.994 11.6528ZM19.4866 10.8798C18.5181 10.8803 16.5026 10.8813 16.5037 13.0924C16.5046 14.858 17.8028 16.3588 19.4879 16.3588H19.4894C21.1347 16.358 22.4726 14.8913 22.4717 13.0893C22.4712 12.1787 22.1256 11.5421 21.4444 11.1971C20.9235 10.9332 20.2835 10.8824 19.4866 10.8798ZM19.4879 15.1635H19.4887C20.475 15.163 21.277 14.2328 21.2765 13.0899C21.2761 12.5289 21.0975 12.361 20.9044 12.2633C20.5787 12.0983 20.036 12.075 19.4967 12.075H19.4871C17.9451 12.0758 17.6985 12.3171 17.6989 13.0917C17.6994 14.1838 18.4602 15.1635 19.4879 15.1635Z" fill="black"/>
</g>
</svg>
