<svg width="27" height="38" viewBox="0 0 27 38" fill="none" xmlns="http://www.w3.org/2000/svg">
<path d="M23.892 37.4434C25.2992 37.4434 26.44 36.3019 26.44 34.8939C26.44 31.0315 25.2039 27.5529 22.6608 24.2594C18.5423 18.9255 12.0268 15.3569 8.37176 10.6232C6.51893 8.22344 5.65596 5.83478 5.65596 3.10605C5.65589 1.69805 4.51514 0.556641 3.10795 0.556641C1.70076 0.556641 0.559937 1.69805 0.559937 3.10613C0.559937 6.96855 1.79608 10.4471 4.33912 13.7406C8.45766 19.0744 14.9732 22.6431 18.6283 27.3768C20.4811 29.7765 21.3441 32.1651 21.3441 34.8939C21.3441 36.3019 22.4848 37.4434 23.892 37.4434Z" fill="#7ACEFA"/>
<path d="M22.0893 5.13968H13.5C12.6471 5.13968 11.9558 4.44789 11.9558 3.59452C11.9558 2.74116 12.6471 2.04944 13.5 2.04944H22.0893C22.9422 2.04944 23.6336 2.74123 23.6336 3.59452C23.6336 4.44782 22.9422 5.13968 22.0893 5.13968Z" fill="#EDA1AB"/>
<path d="M13.5 5.13968H4.91065C4.05777 5.13968 3.36646 4.44789 3.36646 3.59452C3.36646 2.74116 4.05777 2.04944 4.91065 2.04944H13.5C14.3529 2.04944 15.0443 2.74123 15.0443 3.59452C15.0443 4.44782 14.3529 5.13968 13.5 5.13968Z" fill="#F6EE86"/>
<path d="M13.5 11.4247H6.81604C5.96317 11.4247 5.27185 10.7329 5.27185 9.87951C5.27185 9.02614 5.96317 8.33435 6.81604 8.33435H13.5C14.3529 8.33435 15.0443 9.02614 15.0443 9.87951C15.0443 10.7329 14.3529 11.4247 13.5 11.4247Z" fill="#EDA1AB"/>
<path d="M20.184 11.4247H13.5C12.6471 11.4247 11.9558 10.7329 11.9558 9.87951C11.9558 9.02614 12.6471 8.33435 13.5 8.33435H20.184C21.0369 8.33435 21.7283 9.02614 21.7283 9.87951C21.7283 10.7329 21.0369 11.4247 20.184 11.4247Z" fill="#F6EE86"/>
<path d="M13.5 35.9506H4.91065C4.05777 35.9506 3.36646 35.2589 3.36646 34.4055C3.36646 33.5521 4.05777 32.8604 4.91065 32.8604H13.5C14.3529 32.8604 15.0443 33.5521 15.0443 34.4055C15.0443 35.2589 14.3529 35.9506 13.5 35.9506Z" fill="#EDA1AB"/>
<path d="M4.9106 32.8604C4.05773 32.8604 3.36633 33.5521 3.36633 34.4055C3.36633 35.2589 4.05773 35.9507 4.9106 35.9507H7.76192C7.99409 34.9268 7.75695 34.3945 8.09408 32.8604H4.9106V32.8604Z" fill="#E8899E"/>
<path d="M22.0893 35.9506H13.5C12.6471 35.9506 11.9558 35.2589 11.9558 34.4055C11.9558 33.5521 12.6471 32.8604 13.5 32.8604H22.0893C22.9422 32.8604 23.6336 33.5521 23.6336 34.4055C23.6336 35.2589 22.9422 35.9506 22.0893 35.9506Z" fill="#F6EE86"/>
<path d="M20.184 29.6656H13.5C12.6471 29.6656 11.9558 28.9738 11.9558 28.1204C11.9558 27.267 12.6471 26.5753 13.5 26.5753H20.184C21.0369 26.5753 21.7283 27.267 21.7283 28.1204C21.7283 28.9738 21.0369 29.6656 20.184 29.6656Z" fill="#EDA1AB"/>
<path d="M13.5 29.6656H6.81604C5.96317 29.6656 5.27185 28.9738 5.27185 28.1204C5.27185 27.267 5.96317 26.5753 6.81604 26.5753H13.5C14.3529 26.5753 15.0443 27.267 15.0443 28.1204C15.0443 28.9738 14.3529 29.6656 13.5 29.6656Z" fill="#F6EE86"/>
<path d="M6.81599 29.6656H9.47253C10.204 28.5406 11.1284 27.5121 12.0817 26.5753H6.81599C5.96312 26.5753 5.27173 27.2671 5.27173 28.1205C5.27173 28.9738 5.96312 29.6656 6.81599 29.6656Z" fill="#F2D98D"/>
<path d="M20.184 8.33435H17.5275C16.796 9.45936 15.8716 10.4877 14.9183 11.4246H20.184C21.0369 11.4246 21.7283 10.7329 21.7283 9.87951C21.7283 9.02614 21.0369 8.33435 20.184 8.33435Z" fill="#F2D98D"/>
<path d="M22.0894 5.13968C22.9422 5.13968 23.6336 4.44789 23.6336 3.5946C23.6336 2.74123 22.9422 2.04944 22.0894 2.04944H19.238C19.0059 3.07336 19.243 3.60558 18.9059 5.13968H22.0894Z" fill="#E8899E"/>
<path d="M3.10795 37.4434C1.70069 37.4434 0.559937 36.3019 0.559937 34.8939C0.559937 31.0315 1.79608 27.5529 4.33912 24.2594C8.45766 18.9255 14.9732 15.3569 18.6283 10.6232C20.4811 8.22344 21.3441 5.83478 21.3441 3.10605C21.3441 1.69805 22.4848 0.556641 23.892 0.556641C25.2992 0.556641 26.44 1.69805 26.44 3.10613C26.44 6.96855 25.2039 10.4471 22.6608 13.7406C18.5423 19.0744 12.0268 22.6431 8.37176 27.3768C6.51893 29.7765 5.65596 32.1651 5.65596 34.8939C5.65589 36.3019 4.51514 37.4434 3.10795 37.4434Z" fill="#A3DEFE"/>
<path fill-rule="evenodd" clip-rule="evenodd" d="M4.041 23.7369C5.40732 22.0025 7.01293 20.4577 8.68107 18.9999C7.18294 17.6917 5.39041 16.0125 3.89888 14.0809C1.27773 10.6863 0.00361421 7.09643 0.00361421 3.10613C0.00361421 1.39338 1.39619 0 3.10787 0C4.19603 0 5.19933 0.57616 5.75795 1.49269H21.2404C21.7859 0.598352 22.7705 0 23.8921 0C25.6038 0 26.9963 1.39338 26.9963 3.1062C26.9963 5.4435 26.5685 7.60074 25.6885 9.70121C25.5697 9.9848 25.2437 10.1182 24.9604 9.99934C24.677 9.88045 24.5436 9.55425 24.6624 9.27074C25.4843 7.30921 25.8838 5.29276 25.8838 3.10613C25.8838 2.00725 24.9903 1.11328 23.8921 1.11328C22.7938 1.11328 21.9004 2.00725 21.9004 3.10613C21.9004 9.48427 17.1971 13.3657 12.2544 17.4447C9.65828 19.5872 6.99608 21.7842 4.91472 24.4261C4.72453 24.6676 4.37472 24.709 4.1335 24.5187C3.89221 24.3284 3.85082 23.9784 4.041 23.7369ZM10.2866 11.9813C11.3151 13.0554 12.4503 14.0629 13.5001 14.9554C14.6533 13.9752 15.7437 12.9976 16.7158 11.9813H10.2866ZM11.6469 10.868H6.816C6.27125 10.868 5.82812 10.4245 5.82812 9.87955C5.82812 9.33449 6.27132 8.89111 6.816 8.89111C6.94614 8.89124 10.5688 8.89114 11.4537 8.89111H11.4908L11.5379 8.89111L11.6469 8.89111C11.3234 9.49584 11.3104 10.2389 11.6469 10.868ZM13.5 10.868H17.7146C18.2354 10.2467 18.7029 9.62335 19.1466 8.89111H13.4993C12.9549 8.89148 12.5121 9.33471 12.5121 9.87955C12.5121 10.4245 12.9552 10.868 13.5 10.868ZM19.7473 7.77775H7.2523C6.9277 7.0939 6.68359 6.40597 6.51284 5.69621H20.4877C20.3165 6.40471 20.0704 7.09568 19.7473 7.77775ZM20.7847 3.27319C20.7885 3.03071 20.7917 2.83284 20.8286 2.60597H15.353C15.6895 3.23497 15.6766 3.97805 15.353 4.58293H20.6935C20.7736 3.96912 20.7797 3.58441 20.7847 3.27319ZM13.5 2.60604C14.0447 2.60604 14.4879 3.0495 14.4879 3.59449C14.4879 4.13955 14.0447 4.58293 13.5 4.58293H4.91064C4.36582 4.58293 3.92269 4.13948 3.92269 3.59449C3.92269 3.04943 4.36589 2.60597 4.91064 2.60597C5.62102 2.60597 13.5337 2.60604 13.5 2.60604ZM4.36649 1.56461C4.01697 1.27931 3.57474 1.11328 3.10787 1.11328C2.0097 1.11328 1.11625 2.00725 1.11625 3.10613C1.11625 9.64391 4.7002 14.0653 9.53261 18.2659C10.1923 17.7055 10.8376 17.1719 11.4997 16.6244C11.8715 16.317 12.2485 16.0052 12.6364 15.6819C11.3573 14.5896 9.96476 13.3321 8.77513 11.9813H6.81577C5.65752 11.9813 4.71526 11.0385 4.71526 9.87955C4.71526 8.97661 5.28731 8.20496 6.08781 7.90808C5.77086 7.18437 5.53342 6.45302 5.36994 5.69621H4.91057C3.75231 5.69621 2.80998 4.75341 2.80998 3.59449C2.80998 2.62378 3.47119 1.80507 4.36649 1.56461ZM18.3188 19C20.6618 16.9525 22.8587 14.7544 24.4684 12.0919C24.6275 11.8289 24.5434 11.4867 24.2804 11.3276C24.0174 11.1684 23.6756 11.2526 23.5165 11.5157C21.338 15.1184 17.9936 17.8765 14.7496 20.5518C9.80815 24.627 5.09957 28.5102 5.09957 34.8939C5.09957 35.9928 4.20612 36.8867 3.10787 36.8867C2.00963 36.8867 1.11618 35.9928 1.11618 34.8939C1.11618 31.9111 1.86884 29.1963 3.41741 26.5946C3.57459 26.3304 3.48802 25.9888 3.22396 25.8315C2.96019 25.6743 2.61861 25.7608 2.46136 26.025C0.807532 28.8039 0.00354004 31.7049 0.00354004 34.8939C0.00354004 36.6066 1.39612 38 3.10787 38C4.22949 38 5.21402 37.4016 5.75958 36.5072H21.2419C21.8006 37.4238 22.8039 38 23.8921 38C25.6038 38 26.9964 36.6066 26.9964 34.8939C26.9964 30.9036 25.7223 27.3137 23.1012 23.9191C21.6095 21.9875 19.8169 20.3082 18.3188 19ZM16.7133 26.0187C15.6848 24.9445 14.5496 23.937 13.4998 23.0445C12.3466 24.0248 11.2563 25.0024 10.2841 26.0187H16.7133ZM15.353 27.132H20.184C20.7287 27.132 21.1718 27.5755 21.1718 28.1204C21.1718 28.6655 20.7286 29.1089 20.184 29.1089H15.353C15.6766 28.5041 15.6896 27.7611 15.353 27.132ZM13.5 27.132H9.28531C8.76497 27.7528 8.29736 28.3762 7.85334 29.1089H13.5C14.0447 29.1089 14.4879 28.6655 14.4879 28.1204C14.4879 27.5755 14.0447 27.132 13.5 27.132ZM7.25267 30.2222H19.7477C20.0723 30.9061 20.3164 31.594 20.4871 32.3038H6.51232C6.68344 31.5953 6.92956 30.9043 7.25267 30.2222ZM6.17141 35.394H11.6469C11.3104 34.7649 11.3234 34.0218 11.6469 33.417H6.30648C6.22636 34.0312 6.22025 34.4157 6.2153 34.7267C6.21145 34.9691 6.20831 35.1668 6.17141 35.394ZM13.5 35.394C12.9552 35.394 12.5121 34.9505 12.5121 34.4055C12.5121 33.8604 12.9553 33.4171 13.5 33.4171L21.435 33.4171L22.0893 33.4171C22.6341 33.4171 23.0772 33.8605 23.0772 34.4055C23.0772 34.9506 22.634 35.394 22.0893 35.394H13.5ZM24.1898 34.4054C24.1898 35.3761 23.5287 36.1949 22.6334 36.4353C23.9278 37.4921 25.8837 36.5773 25.8839 34.8938C25.8839 28.356 22.2999 23.9347 17.4673 19.7339C16.8089 20.2933 16.1647 20.826 15.5029 21.3732C15.1305 21.6811 14.7527 21.9935 14.3635 22.3179C15.6426 23.4102 17.0351 24.6678 18.2248 26.0186H20.1841C21.3424 26.0186 22.2846 26.9614 22.2846 28.1204C22.2846 29.0233 21.7126 29.795 20.9121 30.0918C21.229 30.8156 21.4665 31.5469 21.6299 32.3037H22.0893C23.2476 32.3037 24.1898 33.2465 24.1898 34.4054Z" fill="black"/>
</svg>
