<svg width="16" height="15" viewBox="0 0 16 15" fill="none" xmlns="http://www.w3.org/2000/svg">
<g clip-path="url(#clip0)">
<path fill-rule="evenodd" clip-rule="evenodd" d="M7.57975 1.13655L9.58554 5.48242H13.9314L10.9227 8.49111L11.5913 13.1713L7.57975 10.4401L3.56818 13.1713L4.57107 8.49111L1.56239 5.48242H5.57397L7.57975 1.13655ZM7.57995 0.133667C7.18946 0.134002 6.83467 0.360964 6.67066 0.715346L4.93231 4.47954H1.56259C1.15723 4.4799 0.791943 4.72424 0.636867 5.09877C0.481792 5.47329 0.567423 5.90434 0.853876 6.19115L3.47477 8.81205L2.5822 12.9573C2.49626 13.3581 2.66278 13.7707 3.00276 13.9996C3.34273 14.2284 3.78774 14.2274 4.12666 13.997L7.57661 11.6569L11.0199 13.997C11.3481 14.2207 11.7774 14.2297 12.1146 14.0198C12.4519 13.8099 12.6335 13.4208 12.5777 13.0275L11.9827 8.84213L14.637 6.18781C14.9207 5.90113 15.005 5.47242 14.8511 5.09964C14.6972 4.72687 14.3349 4.48257 13.9316 4.47954H10.2276L8.48925 0.715346C8.32524 0.360964 7.97045 0.134002 7.57995 0.133667Z" fill="#979797"/>
</g>
<defs>
<clipPath id="clip0">
<rect width="14.7091" height="14.3748" fill="white" transform="translate(0.318848)"/>
</clipPath>
</defs>
</svg>
