<svg width="16" height="15" viewBox="0 0 16 15" fill="none" xmlns="http://www.w3.org/2000/svg">
<g clip-path="url(#clip0)">
<path fill-rule="evenodd" clip-rule="evenodd" d="M8.23291 1.13655L10.2387 5.48242H14.5846L11.5759 8.49111L12.2445 13.1713L8.23291 10.4401L4.22134 13.1713L5.22423 8.49111L2.21555 5.48242H6.22712L8.23291 1.13655ZM8.23327 0.133667C7.84278 0.134002 7.48799 0.360964 7.32398 0.715346L5.58563 4.47954H2.21591C1.81055 4.4799 1.44526 4.72424 1.29019 5.09877C1.13511 5.47329 1.22074 5.90434 1.5072 6.19115L4.12809 8.81205L3.23552 12.9573C3.14958 13.3581 3.31611 13.7707 3.65608 13.9996C3.99605 14.2284 4.44106 14.2274 4.77998 13.997L8.22993 11.6569L11.6732 13.997C12.0014 14.2207 12.4307 14.2297 12.768 14.0198C13.1052 13.8099 13.2868 13.4208 13.231 13.0275L12.636 8.84213L15.2903 6.18781C15.574 5.90113 15.6583 5.47242 15.5044 5.09964C15.3505 4.72687 14.9882 4.48257 14.5849 4.47954H10.8809L9.14257 0.715346C8.97856 0.360964 8.62377 0.134002 8.23327 0.133667Z" fill="#3E64FF"/>
</g>
<defs>
<clipPath id="clip0">
<rect width="14.7091" height="14.3748" fill="white" transform="translate(0.972168)"/>
</clipPath>
</defs>
</svg>
