<svg width="35" height="44" viewBox="0 0 35 44" fill="none" xmlns="http://www.w3.org/2000/svg">
<path fill-rule="evenodd" clip-rule="evenodd" d="M0.383834 16.7361C0.143371 16.9169 0 17.1991 0 17.5V19.4971C0 20.9002 1.47742 21.8112 2.73617 21.1913C5.1449 20.0052 7.41043 18.9314 9.57062 18.013C10.8577 17.4658 11.202 15.7545 10.2671 14.7143C9.95067 14.3622 9.63866 14.0008 9.33158 13.6298C8.84429 13.041 8.06007 12.7653 7.33561 13.0088C4.89825 13.8281 2.55817 15.101 0.383834 16.7361ZM2.62367 10.0439C2.05725 9.97896 1.52918 10.3124 1.31205 10.8396C1.28926 10.8949 1.26674 10.9504 1.2445 11.006C0.785044 12.1551 2.10438 13.058 3.20462 12.4915C4.31532 11.9196 4.29992 10.3041 3.06658 10.105C2.91707 10.0809 2.76944 10.0606 2.62367 10.0439ZM33.5182 31.6848C33.7193 32.1397 33.7345 32.6579 33.5348 33.1134C30.8297 39.2831 24.6681 43.5928 17.5 43.5928C7.83502 43.5928 0 35.7578 0 26.0928V26.0619C0 25.3488 0.402175 24.6964 1.03971 24.3769C5.60436 22.0898 9.54995 20.1716 13.1782 18.8269C13.7974 18.5974 14.4876 18.7286 15.006 19.1378C19.2074 22.4544 23.7263 24.7267 27.7157 26.7328C28.4315 27.0927 29.1302 27.4441 29.807 27.7914C30.5123 28.1532 31.19 28.5084 31.8386 28.8615C32.1879 29.0516 32.4653 29.3506 32.6311 29.7121C32.9294 30.3624 33.2247 31.0205 33.5182 31.6848ZM34.2909 20.5455C34.7484 20.8804 35 21.4223 35 21.9893V26.0928C35 26.5088 34.9855 26.9214 34.9569 27.3301C34.9289 27.7309 34.4874 27.9491 34.1397 27.748C34.0419 27.6914 33.9622 27.6057 33.9138 27.5036C32.8878 25.3407 31.8097 23.2574 30.6404 21.3276C29.8816 20.0753 31.0189 18.5732 32.3014 19.2798C33.009 19.6696 33.6717 20.0922 34.2909 20.5455ZM4.71312 5.55229C3.75437 6.57795 4.47552 8.19106 5.79858 8.66082C6.70438 8.98243 7.64317 9.4089 8.61561 9.94853C9.02974 10.1783 9.51063 10.2587 9.97721 10.1774C11.591 9.896 13.2402 9.79744 14.9108 9.90569C19.0215 10.172 22.3542 11.8365 25.1712 14.4063C25.4698 14.6787 25.8417 14.8579 26.2406 14.9231C28.5706 15.3042 30.9035 16.1167 33.3128 17.4441C33.608 17.6068 33.8963 17.7746 34.1775 17.9473C34.532 18.1651 35 17.916 35 17.5C35 7.83502 27.165 0 17.5 0C12.4541 0 7.90691 2.13562 4.71312 5.55229ZM13.8518 15.3863C14.3351 15.8406 15.028 15.9807 15.6655 15.7975C16.0387 15.6903 16.4095 15.59 16.7782 15.4969C18.5184 15.0576 18.9969 12.7962 17.2529 12.3718C16.4613 12.1792 15.6366 12.0529 14.7753 11.9971C14.5679 11.9837 14.3606 11.9738 14.1536 11.9674C12.6893 11.9225 12.0336 13.5909 13.0691 14.6272C13.3275 14.8857 13.5884 15.1387 13.8518 15.3863ZM27.6117 20.4918C26.8234 19.3415 26.0045 18.2878 25.1439 17.3431C24.8402 17.0099 24.4189 16.8073 23.9687 16.7836C22.7514 16.7196 21.5236 16.7781 20.2689 16.9461C18.7295 17.1522 18.3561 19.0446 19.659 19.8898C22.6624 21.8383 25.7528 23.3955 28.6644 24.8625C29.337 25.2014 30.0438 24.4851 29.6745 23.8288C29.017 22.6604 28.3326 21.5438 27.6117 20.4918Z" fill="#00726B"/>
</svg>
