<svg width="44" height="40" viewBox="0 0 44 40" fill="none" xmlns="http://www.w3.org/2000/svg">
<g id="surgery">
<path id="Path" d="M18.2618 27.7421H25.4989V35.2127H18.2618L18.2618 27.7421Z" fill="#4E5660"/>
<path id="Path_2" d="M18.2618 31.2357L18.625 31.3539C19.6779 31.6962 20.7732 31.8698 21.8804 31.8698C22.9876 31.8698 24.083 31.6963 25.1359 31.3539L25.4989 31.2358V27.7421H18.2618L18.2618 31.2357Z" fill="#3A4351"/>
<path id="Path_3" d="M28.248 39.301H15.5128C14.5356 39.301 13.9465 38.2188 14.4769 37.3981L15.0526 36.5073C15.5742 35.7002 16.4696 35.2128 17.4307 35.2128H26.3302C27.2912 35.2128 28.1866 35.7002 28.7083 36.5073L29.284 37.3981C29.8143 38.2188 29.2252 39.301 28.248 39.301Z" fill="#A0E7E7"/>
<path id="Path_4" d="M41.0436 28.0892L38.5024 28.9155C36.9019 29.4358 35.1777 29.4358 33.5772 28.9155L31.4227 28.2149C29.8222 27.6946 28.098 27.6946 26.4975 28.2149L24.343 28.9155C22.7424 29.4358 21.0183 29.4358 19.4177 28.9155L17.2632 28.2149C15.6627 27.6946 13.9385 27.6946 12.338 28.2149L10.1835 28.9155C8.58296 29.4358 6.85877 29.4358 5.25826 28.9155L2.71706 28.0892C1.47903 27.6868 0.640991 26.5331 0.640991 25.2314V17.6748C0.640991 15.8995 2.08014 14.4603 3.85544 14.4603H39.9051C41.6804 14.4603 43.1195 15.8995 43.1195 17.6748V25.2314C43.1196 26.5331 42.2816 27.6868 41.0436 28.0892Z" fill="#A0E7E7"/>
<path id="Path_5" d="M33.737 14.4603H16.9172L7.90286 23.4747C6.35448 25.0231 5.87431 27.2411 6.46149 29.2052C7.70183 29.4038 8.97764 29.3074 10.1834 28.9155L12.3379 28.2149C13.9384 27.6946 15.6626 27.6946 17.2631 28.2149L19.4176 28.9155C19.7001 29.0073 19.9865 29.082 20.2753 29.1414L32.3113 17.1054C33.0462 16.3708 33.5348 15.4557 33.737 14.4603V14.4603Z" fill="#8ED2E2"/>
<path id="Path_6" d="M27.675 10.6199C28.2787 9.10589 32.2586 4.21564 37.6868 0.829226C38.2011 0.508372 38.8762 0.81162 38.9855 1.40786C39.5401 4.43692 38.1015 7.01632 36.04 9.07777C33.718 11.3997 30.4662 13.411 30.4662 13.411L27.675 10.6199Z" fill="#A3DEFE"/>
<path id="Path_7" d="M15.1095 30.6811L30.4987 15.292C30.9982 14.7925 31.2787 14.115 31.2787 13.4086V5.66505C31.2787 4.94915 30.4132 4.5906 29.907 5.09684L9.7161 25.2877C8.46849 26.5353 8.46849 28.558 9.7161 29.8056L10.5916 30.6811C11.8391 31.9287 13.8619 31.9287 15.1095 30.6811Z" fill="#F6EE86"/>
<path id="Path_8" d="M17.6244 28.1662C16.1391 25.9988 15.5961 21.5134 15.9278 19.076L9.71598 25.2878C8.46837 26.5355 8.46837 28.5582 9.71598 29.8058L10.5914 30.6813C11.8391 31.9289 13.8618 31.9289 15.1094 30.6813L17.6244 28.1662Z" fill="#F2D98D"/>
<path id="Path_9" d="M31.2786 5.66517V13.4088C31.2786 14.1152 30.998 14.7926 30.4985 15.2921L24.9459 20.8447C23.4798 20.8428 22.1011 20.3434 21.0774 19.3197C20.0537 18.296 19.5544 16.9174 19.5524 15.4513L29.9068 5.09696C30.4131 4.59073 31.2786 4.94927 31.2786 5.66517Z" fill="#C0ADE2"/>
<g id="Group">
<path id="Path_10" d="M24.0464 17.7886C23.8823 17.7886 23.7182 17.726 23.593 17.6008L22.7965 16.8043C22.5462 16.554 22.5462 16.1481 22.7965 15.8978C23.0469 15.6475 23.4528 15.6475 23.7031 15.8978L24.4996 16.6943C24.7499 16.9447 24.7499 17.3506 24.4996 17.6008C24.3745 17.726 24.2104 17.7886 24.0464 17.7886Z" fill="white"/>
<path id="Path_11" d="M26.1124 15.7224C25.9484 15.7224 25.7843 15.6598 25.6591 15.5346L24.8626 14.7381C24.6122 14.4878 24.6122 14.0819 24.8626 13.8316C25.113 13.5812 25.5188 13.5812 25.7691 13.8316L26.5656 14.6281C26.816 14.8784 26.816 15.2843 26.5656 15.5345C26.4404 15.6598 26.2764 15.7224 26.1124 15.7224Z" fill="white"/>
</g>
<path id="Shape" fill-rule="evenodd" clip-rule="evenodd" d="M31.8936 13.8193H39.9052C42.0311 13.8193 43.7607 15.5489 43.7607 17.6747V25.2314C43.7607 26.8156 42.7485 28.2091 41.2418 28.6989C40.6058 28.9014 40.217 29.0304 39.9696 29.1125C39.5669 29.2461 39.5387 29.2555 39.4284 29.2555C39.1583 29.2555 38.9069 29.0834 38.8189 28.8125C38.7094 28.4759 38.8937 28.1142 39.2303 28.0047L40.8454 27.4796C41.8222 27.1621 42.4785 26.2586 42.4785 25.2314V17.6747C42.4785 16.2558 41.3242 15.1013 39.9051 15.1013H31.4547L31.444 15.1193C31.4208 15.1581 31.4 15.1929 31.3783 15.2271C31.1906 15.5233 30.9357 15.7769 28.4732 18.2278C26.6724 20.02 23.6909 22.9873 18.6918 28.0054C18.7727 28.0214 18.8984 28.0657 19.0646 28.1243C19.9021 28.4195 21.77 29.0779 24.1447 28.3059L26.2992 27.6054C28.0401 27.0395 29.8803 27.0395 31.6209 27.6054L33.7755 28.3059C34.6309 28.5839 35.52 28.7016 36.4185 28.6549C36.7726 28.6377 37.0735 28.9084 37.0918 29.262C37.11 29.6155 36.8383 29.917 36.4847 29.9353C35.4285 29.9898 34.3842 29.8518 33.3791 29.525L31.2245 28.8246C28.8752 28.0608 27.0131 28.7082 26.3587 28.9357L26.3586 28.9357L26.3585 28.9358L26.3584 28.9358L26.3583 28.9359C26.2535 28.9723 26.1797 28.9979 26.1399 29.0053V34.5718H26.3302C27.5139 34.5718 28.604 35.1653 29.2465 36.1594L29.8222 37.0501C30.6273 38.2957 29.7312 39.9421 28.2479 39.9421H15.5127C14.0297 39.9421 13.1333 38.2959 13.9385 37.0502L14.5141 36.1594C15.1566 35.1653 16.2468 34.5718 17.4305 34.5718H17.6208V29.0765L15.5627 31.1345C14.0671 32.6301 11.6338 32.63 10.1382 31.1345C9.86792 30.8599 9.67145 30.6655 9.51976 30.5155L9.51947 30.5152L9.51936 30.5151L9.51901 30.5148L9.51875 30.5145L9.51872 30.5145C9.21733 30.2164 9.09292 30.0934 8.91684 29.8618C7.58376 30.0486 6.26308 29.9163 5.05991 29.5251L2.5188 28.6989C1.01222 28.209 0 26.8156 0 25.2314V17.6747C0 15.5489 1.72957 13.8193 3.85547 13.8193H4.52744C4.88154 13.8193 5.16846 14.1063 5.16846 14.4603C5.16846 14.8143 4.88154 15.1013 4.52744 15.1013H3.85547C2.4365 15.1013 1.28205 16.2557 1.28205 17.6747V25.2314C1.28205 26.2585 1.93838 27.162 2.91521 27.4796L5.45641 28.3059C6.37094 28.6032 7.3394 28.7153 8.29701 28.6398C7.91256 27.3396 8.22632 25.8709 9.26282 24.8345L18.9959 15.1013H7.5994C7.2453 15.1013 6.95838 14.8143 6.95838 14.4603C6.95838 14.1063 7.2453 13.8193 7.5994 13.8193H20.2779L29.4536 4.64364C30.0808 4.01646 31.0926 4.10697 31.615 4.77637C33.0144 3.43765 34.9773 1.76406 37.3476 0.285346C38.2444 -0.273885 39.4254 0.250987 39.616 1.29244C40.1415 4.16167 39.0908 6.93355 36.4933 9.53107C34.9759 11.0485 33.0754 12.4323 31.9197 13.2221C31.919 13.2529 31.9193 13.2858 31.9195 13.3219C31.9203 13.4406 31.9213 13.594 31.8936 13.8193ZM38.0262 1.37304C35.3954 3.01423 33.2809 4.90936 31.9197 6.27124V11.6578C35.4958 9.10124 39.1482 5.85577 38.355 1.52321C38.3268 1.3703 38.1557 1.29227 38.0262 1.37304ZM19.0499 29.4689L19.0499 29.469C19.4471 29.6022 20.482 29.9494 21.8803 29.9494C23.2757 29.9494 24.402 29.5729 24.755 29.4549C24.8058 29.4379 24.8406 29.4263 24.8579 29.4219V34.5716H18.9028V29.422C18.932 29.4294 18.9815 29.446 19.0499 29.4689ZM28.1697 36.8553C27.7645 36.2281 27.0768 35.8537 26.3302 35.8537H17.4305C16.6839 35.8537 15.9962 36.2282 15.5909 36.8553L15.0152 37.7459C14.76 38.1409 15.0432 38.66 15.5127 38.66H28.2479C28.7181 38.66 29.0003 38.1402 28.7455 37.7459L28.1697 36.8553ZM14.6562 30.2279C13.6583 31.2259 12.0428 31.226 11.0449 30.2279L10.1693 29.3524C9.17137 28.3544 9.1712 26.7391 10.1694 25.741L19.0599 16.8505C19.5497 19.1276 21.2091 20.8341 23.5475 21.3365L14.6562 30.2279ZM30.0452 14.8389C30.4273 14.4568 30.6376 13.9489 30.6376 13.4088V5.66517C30.6376 5.55347 30.546 5.50047 30.4699 5.50047C30.4635 5.50047 30.4597 5.49852 30.4562 5.49675L30.4528 5.49513C30.4205 5.48197 30.3569 5.54582 28.5037 7.40416C27.0727 8.83924 24.5746 11.3444 20.1997 15.7107C20.3157 18.2636 22.1346 20.0815 24.6865 20.1976L30.0452 14.8389ZM8.62128 23.3315V20.3935C8.62128 20.0394 8.33436 19.7524 7.98026 19.7524C7.62615 19.7524 7.33923 20.0394 7.33923 20.3935V23.3315C7.33923 23.6855 7.62615 23.9725 7.98026 23.9725C8.33436 23.9725 8.62128 23.6855 8.62128 23.3315ZM32.9341 23.3316V20.3936C32.9341 20.0395 33.221 19.7525 33.5751 19.7525C33.9292 19.7525 34.2162 20.0395 34.2162 20.3936V23.3316C34.2162 23.6856 33.9292 23.9726 33.5751 23.9726C33.221 23.9726 32.9341 23.6856 32.9341 23.3316Z" fill="black"/>
</g>
</svg>
