<svg width="176" height="44" viewBox="0 0 176 44" fill="none" xmlns="http://www.w3.org/2000/svg">
<path d="M69.9992 13.9797V32H65.6096V21.1929L61.5794 32H58.037L53.9811 21.1673V32H49.5915V13.9797H54.7769L59.8339 26.4553L64.8395 13.9797H69.9992ZM77.5454 17.4965V21.1416H83.4238V24.53H77.5454V28.4832H84.1939V32H73.1558V13.9797H84.1939V17.4965H77.5454ZM93.7949 13.9797C95.6945 13.9797 97.3545 14.3562 98.7749 15.1091C100.195 15.8621 101.291 16.9232 102.061 18.2922C102.848 19.6442 103.241 21.21 103.241 22.9898C103.241 24.7525 102.848 26.3184 102.061 27.6874C101.291 29.0565 100.187 30.1175 98.7492 30.8705C97.3288 31.6235 95.6773 32 93.7949 32H87.0437V13.9797H93.7949ZM93.5125 28.2008C95.1725 28.2008 96.4646 27.7473 97.3887 26.8403C98.3128 25.9333 98.7749 24.6498 98.7749 22.9898C98.7749 21.3298 98.3128 20.0378 97.3887 19.1137C96.4646 18.1895 95.1725 17.7275 93.5125 17.7275H91.4332V28.2008H93.5125ZM110.084 13.9797V32H105.695V13.9797H110.084ZM117.655 28.6116H123.405V32H113.265V13.9797H117.655V28.6116ZM136.716 28.8169H129.991L128.913 32H124.318L130.838 13.9797H135.921L142.441 32H137.794L136.716 28.8169ZM135.587 25.4285L133.354 18.8313L131.146 25.4285H135.587ZM155.335 22.7588C156.379 22.9813 157.217 23.5032 157.851 24.3247C158.484 25.129 158.8 26.0531 158.8 27.097C158.8 28.603 158.27 29.8009 157.209 30.6908C156.165 31.5636 154.702 32 152.819 32H144.425V13.9797H152.537C154.368 13.9797 155.797 14.3989 156.824 15.2375C157.868 16.076 158.39 17.2141 158.39 18.6516C158.39 19.7126 158.107 20.594 157.543 21.2956C156.995 21.9973 156.259 22.485 155.335 22.7588ZM148.815 21.2699H151.69C152.409 21.2699 152.956 21.1159 153.333 20.8079C153.726 20.4827 153.923 20.0121 153.923 19.396C153.923 18.7799 153.726 18.3093 153.333 17.9842C152.956 17.659 152.409 17.4965 151.69 17.4965H148.815V21.2699ZM152.049 28.4575C152.785 28.4575 153.35 28.295 153.743 27.9698C154.154 27.6275 154.359 27.1398 154.359 26.5066C154.359 25.8734 154.146 25.3771 153.718 25.0178C153.307 24.6584 152.734 24.4787 151.998 24.4787H148.815V28.4575H152.049ZM167.866 32.1797C166.549 32.1797 165.368 31.9658 164.324 31.5379C163.28 31.1101 162.442 30.4769 161.808 29.6384C161.192 28.7998 160.867 27.7901 160.833 26.6093H165.505C165.573 27.2767 165.804 27.7901 166.198 28.1495C166.592 28.4918 167.105 28.6629 167.738 28.6629C168.388 28.6629 168.902 28.5174 169.278 28.2265C169.655 27.9185 169.843 27.4992 169.843 26.9687C169.843 26.5237 169.689 26.1558 169.381 25.8649C169.09 25.5739 168.722 25.3344 168.277 25.1461C167.849 24.9579 167.233 24.7439 166.429 24.5044C165.265 24.145 164.315 23.7856 163.58 23.4262C162.844 23.0668 162.211 22.5363 161.68 21.8347C161.149 21.133 160.884 20.2175 160.884 19.088C160.884 17.4109 161.492 16.1017 162.707 15.1605C163.922 14.2021 165.505 13.723 167.456 13.723C169.441 13.723 171.041 14.2021 172.256 15.1605C173.471 16.1017 174.121 17.4194 174.207 19.1137H169.458C169.424 18.5318 169.21 18.0783 168.816 17.7531C168.423 17.4109 167.918 17.2397 167.302 17.2397C166.771 17.2397 166.343 17.3852 166.018 17.6761C165.693 17.95 165.53 18.3521 165.53 18.8826C165.53 19.4645 165.804 19.918 166.352 20.2431C166.9 20.5683 167.755 20.9191 168.919 21.2956C170.083 21.6892 171.024 22.0657 171.743 22.4251C172.479 22.7845 173.112 23.3064 173.642 23.991C174.173 24.6755 174.438 25.5568 174.438 26.635C174.438 27.6618 174.173 28.5944 173.642 29.433C173.129 30.2716 172.376 30.939 171.383 31.4353C170.391 31.9315 169.218 32.1797 167.866 32.1797Z" fill="white"/>
<path fill-rule="evenodd" clip-rule="evenodd" d="M0.383834 16.7361C0.143371 16.9169 0 17.1991 0 17.5V19.4971C0 20.9002 1.47742 21.8112 2.73617 21.1913C5.1449 20.0052 7.41043 18.9314 9.57062 18.013C10.8577 17.4658 11.202 15.7545 10.2671 14.7143C9.95067 14.3622 9.63866 14.0008 9.33158 13.6298C8.84429 13.041 8.06007 12.7653 7.33561 13.0088C4.89825 13.8281 2.55817 15.101 0.383834 16.7361ZM2.62367 10.0439C2.05725 9.97896 1.52918 10.3124 1.31205 10.8396C1.28926 10.8949 1.26674 10.9504 1.2445 11.006C0.785044 12.1551 2.10438 13.058 3.20462 12.4915C4.31532 11.9196 4.29992 10.3041 3.06658 10.105C2.91707 10.0809 2.76944 10.0606 2.62367 10.0439ZM33.5182 31.6848C33.7193 32.1397 33.7345 32.6579 33.5348 33.1134C30.8297 39.2831 24.6681 43.5928 17.5 43.5928C7.83502 43.5928 0 35.7578 0 26.0928V26.0619C0 25.3488 0.402175 24.6964 1.03971 24.3769C5.60436 22.0898 9.54995 20.1716 13.1782 18.8269C13.7974 18.5974 14.4876 18.7286 15.006 19.1378C19.2074 22.4544 23.7263 24.7267 27.7157 26.7328C28.4315 27.0927 29.1302 27.4441 29.807 27.7914C30.5123 28.1532 31.19 28.5084 31.8386 28.8615C32.1879 29.0516 32.4653 29.3506 32.6311 29.7121C32.9294 30.3624 33.2247 31.0205 33.5182 31.6848ZM34.2909 20.5455C34.7484 20.8804 35 21.4223 35 21.9893V26.0928C35 26.5088 34.9855 26.9214 34.9569 27.3301C34.9289 27.7309 34.4874 27.9491 34.1397 27.748C34.0419 27.6914 33.9622 27.6057 33.9138 27.5036C32.8878 25.3407 31.8097 23.2574 30.6404 21.3276C29.8816 20.0753 31.0189 18.5732 32.3014 19.2798C33.009 19.6696 33.6717 20.0922 34.2909 20.5455ZM4.71312 5.55229C3.75437 6.57795 4.47552 8.19106 5.79858 8.66082C6.70438 8.98243 7.64317 9.4089 8.61561 9.94853C9.02974 10.1783 9.51063 10.2587 9.97721 10.1774C11.591 9.896 13.2402 9.79744 14.9108 9.90569C19.0215 10.172 22.3542 11.8365 25.1712 14.4063C25.4698 14.6787 25.8417 14.8579 26.2406 14.9231C28.5706 15.3042 30.9035 16.1167 33.3128 17.4441C33.608 17.6068 33.8963 17.7746 34.1775 17.9473C34.532 18.1651 35 17.916 35 17.5C35 7.83502 27.165 0 17.5 0C12.4541 0 7.90691 2.13562 4.71312 5.55229ZM13.8518 15.3863C14.3351 15.8406 15.028 15.9807 15.6655 15.7975C16.0387 15.6903 16.4095 15.59 16.7782 15.4969C18.5184 15.0576 18.9969 12.7962 17.2529 12.3718C16.4613 12.1792 15.6366 12.0529 14.7753 11.9971C14.5679 11.9837 14.3606 11.9738 14.1536 11.9674C12.6893 11.9225 12.0336 13.5909 13.0691 14.6272C13.3275 14.8857 13.5884 15.1387 13.8518 15.3863ZM27.6117 20.4918C26.8234 19.3415 26.0045 18.2878 25.1439 17.3431C24.8402 17.0099 24.4189 16.8073 23.9687 16.7836C22.7514 16.7196 21.5236 16.7781 20.2689 16.9461C18.7295 17.1522 18.3561 19.0446 19.659 19.8898C22.6624 21.8383 25.7528 23.3955 28.6644 24.8625C29.337 25.2014 30.0438 24.4851 29.6745 23.8288C29.017 22.6604 28.3326 21.5438 27.6117 20.4918Z" fill="white"/>
</svg>
