<svg width="176" height="44" viewBox="0 0 176 44" fill="none" xmlns="http://www.w3.org/2000/svg">
<path d="M69.9992 14.9797V33H65.6096V22.1929L61.5794 33H58.037L53.9811 22.1673V33H49.5915V14.9797H54.7769L59.8339 27.4553L64.8395 14.9797H69.9992ZM77.5454 18.4965V22.1416H83.4238V25.53H77.5454V29.4832H84.1939V33H73.1558V14.9797H84.1939V18.4965H77.5454ZM93.7949 14.9797C95.6945 14.9797 97.3545 15.3562 98.7749 16.1091C100.195 16.8621 101.291 17.9232 102.061 19.2922C102.848 20.6442 103.241 22.21 103.241 23.9898C103.241 25.7525 102.848 27.3184 102.061 28.6874C101.291 30.0565 100.187 31.1175 98.7492 31.8705C97.3288 32.6235 95.6773 33 93.7949 33H87.0437V14.9797H93.7949ZM93.5125 29.2008C95.1725 29.2008 96.4646 28.7473 97.3887 27.8403C98.3128 26.9333 98.7749 25.6498 98.7749 23.9898C98.7749 22.3298 98.3128 21.0378 97.3887 20.1137C96.4646 19.1895 95.1725 18.7275 93.5125 18.7275H91.4332V29.2008H93.5125ZM110.084 14.9797V33H105.695V14.9797H110.084ZM117.655 29.6116H123.405V33H113.265V14.9797H117.655V29.6116ZM136.716 29.8169H129.991L128.913 33H124.318L130.838 14.9797H135.921L142.441 33H137.794L136.716 29.8169ZM135.587 26.4285L133.354 19.8313L131.146 26.4285H135.587ZM155.335 23.7588C156.379 23.9813 157.217 24.5032 157.851 25.3247C158.484 26.129 158.8 27.0531 158.8 28.097C158.8 29.603 158.27 30.8009 157.209 31.6908C156.165 32.5636 154.702 33 152.819 33H144.425V14.9797H152.537C154.368 14.9797 155.797 15.3989 156.824 16.2375C157.868 17.076 158.39 18.2141 158.39 19.6516C158.39 20.7126 158.107 21.594 157.543 22.2956C156.995 22.9973 156.259 23.485 155.335 23.7588ZM148.815 22.2699H151.69C152.409 22.2699 152.956 22.1159 153.333 21.8079C153.726 21.4827 153.923 21.0121 153.923 20.396C153.923 19.7799 153.726 19.3093 153.333 18.9842C152.956 18.659 152.409 18.4965 151.69 18.4965H148.815V22.2699ZM152.049 29.4575C152.785 29.4575 153.35 29.295 153.743 28.9698C154.154 28.6275 154.359 28.1398 154.359 27.5066C154.359 26.8734 154.146 26.3771 153.718 26.0178C153.307 25.6584 152.734 25.4787 151.998 25.4787H148.815V29.4575H152.049ZM167.866 33.1797C166.549 33.1797 165.368 32.9658 164.324 32.5379C163.28 32.1101 162.442 31.4769 161.808 30.6384C161.192 29.7998 160.867 28.7901 160.833 27.6093H165.505C165.573 28.2767 165.804 28.7901 166.198 29.1495C166.592 29.4918 167.105 29.6629 167.738 29.6629C168.388 29.6629 168.902 29.5174 169.278 29.2265C169.655 28.9185 169.843 28.4992 169.843 27.9687C169.843 27.5237 169.689 27.1558 169.381 26.8649C169.09 26.5739 168.722 26.3344 168.277 26.1461C167.849 25.9579 167.233 25.7439 166.429 25.5044C165.265 25.145 164.315 24.7856 163.58 24.4262C162.844 24.0668 162.211 23.5363 161.68 22.8347C161.149 22.133 160.884 21.2175 160.884 20.088C160.884 18.4109 161.492 17.1017 162.707 16.1605C163.922 15.2021 165.505 14.723 167.456 14.723C169.441 14.723 171.041 15.2021 172.256 16.1605C173.471 17.1017 174.121 18.4194 174.207 20.1137H169.458C169.424 19.5318 169.21 19.0783 168.816 18.7531C168.423 18.4109 167.918 18.2397 167.302 18.2397C166.771 18.2397 166.343 18.3852 166.018 18.6761C165.693 18.95 165.53 19.3521 165.53 19.8826C165.53 20.4645 165.804 20.918 166.352 21.2431C166.9 21.5683 167.755 21.9191 168.919 22.2956C170.083 22.6892 171.024 23.0657 171.743 23.4251C172.479 23.7845 173.112 24.3064 173.642 24.991C174.173 25.6755 174.438 26.5568 174.438 27.635C174.438 28.6618 174.173 29.5944 173.642 30.433C173.129 31.2716 172.376 31.939 171.383 32.4353C170.391 32.9315 169.218 33.1797 167.866 33.1797Z" fill="#1B2050"/>
<path fill-rule="evenodd" clip-rule="evenodd" d="M0.383834 16.7361C0.143371 16.9169 0 17.1991 0 17.5V17.5V19.4971C0 20.9002 1.47742 21.8112 2.73617 21.1913C5.1449 20.0052 7.41043 18.9314 9.57062 18.013C10.8577 17.4658 11.202 15.7545 10.2671 14.7143C9.95067 14.3622 9.63866 14.0008 9.33158 13.6298C8.84429 13.041 8.06007 12.7653 7.33561 13.0088C4.89825 13.8281 2.55817 15.101 0.383834 16.7361ZM2.62367 10.0439C2.05725 9.97896 1.52918 10.3124 1.31205 10.8396C1.28926 10.8949 1.26674 10.9504 1.2445 11.006C0.785044 12.1551 2.10438 13.058 3.20462 12.4915V12.4915C4.31532 11.9196 4.29992 10.3041 3.06658 10.105C2.91707 10.0809 2.76944 10.0606 2.62367 10.0439ZM33.5182 31.6848C33.7193 32.1397 33.7345 32.6579 33.5348 33.1134C30.8297 39.2831 24.6681 43.5928 17.5 43.5928C7.83502 43.5928 0 35.7578 0 26.0928V26.0619C0 25.3488 0.402175 24.6964 1.03971 24.3769C5.60436 22.0898 9.54995 20.1716 13.1782 18.8269C13.7974 18.5974 14.4876 18.7286 15.006 19.1378C19.2074 22.4544 23.7263 24.7267 27.7157 26.7328C28.4315 27.0927 29.1302 27.4441 29.807 27.7914C30.5123 28.1532 31.19 28.5084 31.8386 28.8615C32.1879 29.0516 32.4653 29.3506 32.6311 29.7121C32.9294 30.3624 33.2247 31.0205 33.5182 31.6848ZM34.2909 20.5455C34.7484 20.8804 35 21.4223 35 21.9893V26.0928C35 26.5088 34.9855 26.9214 34.9569 27.3301C34.9289 27.7309 34.4874 27.9491 34.1397 27.748V27.748C34.0419 27.6914 33.9622 27.6057 33.9138 27.5036C32.8878 25.3407 31.8097 23.2574 30.6404 21.3276C29.8816 20.0753 31.0189 18.5732 32.3014 19.2798V19.2798C33.009 19.6696 33.6717 20.0922 34.2909 20.5455ZM4.71312 5.55229C3.75437 6.57795 4.47552 8.19106 5.79858 8.66082C6.70438 8.98243 7.64317 9.4089 8.61561 9.94853C9.02974 10.1783 9.51063 10.2587 9.97721 10.1774C11.591 9.896 13.2402 9.79744 14.9108 9.90569C19.0215 10.172 22.3542 11.8365 25.1712 14.4063C25.4698 14.6787 25.8417 14.8579 26.2406 14.9231C28.5706 15.3042 30.9035 16.1167 33.3128 17.4441C33.608 17.6068 33.8963 17.7746 34.1775 17.9473C34.532 18.1651 35 17.916 35 17.5V17.5C35 7.83502 27.165 0 17.5 0C12.4541 0 7.90691 2.13562 4.71312 5.55229ZM13.8518 15.3863C14.3351 15.8406 15.028 15.9807 15.6655 15.7975C16.0387 15.6903 16.4095 15.59 16.7782 15.4969C18.5184 15.0576 18.9969 12.7962 17.2529 12.3718C16.4613 12.1792 15.6366 12.0529 14.7753 11.9971C14.5679 11.9837 14.3606 11.9738 14.1536 11.9674C12.6893 11.9225 12.0336 13.5909 13.0691 14.6272C13.3275 14.8857 13.5884 15.1387 13.8518 15.3863ZM27.6117 20.4918C26.8234 19.3415 26.0045 18.2878 25.1439 17.3431C24.8402 17.0099 24.4189 16.8073 23.9687 16.7836C22.7514 16.7196 21.5236 16.7781 20.2689 16.9461C18.7295 17.1522 18.3561 19.0446 19.659 19.8898C22.6624 21.8383 25.7528 23.3955 28.6644 24.8625V24.8625C29.337 25.2014 30.0438 24.4851 29.6745 23.8288C29.017 22.6604 28.3326 21.5438 27.6117 20.4918Z" fill="#00726B"/>
</svg>
